<svg width="146" height="26" viewBox="0 0 146 26" xmlns="http://www.w3.org/2000/svg"><title>A0EA6CDC-8EAF-416E-A2E9-697401AABEB2</title><g fill="none" fill-rule="evenodd"><path d="M42.624 8.985c0 3.983-1.6 6.558-4.767 7.726l6.335 8.895h-6.878l-5.55-7.936h-3.861v7.936h-5.61V.72h9.501c3.892 0 6.667.659 8.326 1.946 1.69 1.318 2.504 3.415 2.504 6.32zm-6.727 2.964c.693-.628 1.025-1.587 1.025-2.934 0-1.348-.362-2.247-1.086-2.756-.724-.509-1.96-.748-3.77-.748h-4.163v7.367h4.072c1.93-.03 3.228-.33 3.922-.929zM59.697 20.694c2.745 0 5.008-1.078 6.727-3.234l3.59 3.654c-2.836 3.174-6.184 4.762-10.045 4.762-3.862 0-7.029-1.198-9.533-3.624-2.503-2.426-3.74-5.48-3.74-9.164 0-3.684 1.267-6.769 3.83-9.225C53.062 1.408 56.199.15 59.879.15c4.103 0 7.541 1.557 10.317 4.672l-3.47 3.923c-1.78-2.186-3.981-3.264-6.606-3.264-2.111 0-3.89.688-5.4 2.036-1.507 1.378-2.231 3.205-2.231 5.51 0 2.307.693 4.164 2.111 5.571 1.388 1.408 3.077 2.096 5.098 2.096M91.521 2.935c1.75 1.497 2.625 3.773 2.625 6.828 0 3.085-.905 5.331-2.715 6.739-1.81 1.437-4.555 2.126-8.265 2.126h-3.349v6.948h-5.58V.72h8.868c3.831 0 6.637.748 8.416 2.216zm-4.132 9.793c.663-.749.995-1.827.995-3.264 0-1.438-.422-2.456-1.297-3.055-.875-.599-2.232-.898-4.072-.898h-3.198v8.355h3.771c1.87 0 3.137-.39 3.8-1.138z" fill="#0D0D58"/><path d="M109.832 20.694c2.745 0 5.007-1.078 6.727-3.234l3.59 3.654c-2.836 3.174-6.185 4.762-10.046 4.762-3.86 0-7.028-1.198-9.532-3.624-2.504-2.426-3.74-5.48-3.74-9.164 0-3.684 1.267-6.769 3.83-9.225 2.534-2.455 5.672-3.713 9.352-3.713 4.102 0 7.541 1.557 10.316 4.672l-3.469 3.923c-1.78-2.186-3.981-3.264-6.606-3.264-2.111 0-3.891.688-5.4 2.036-1.508 1.378-2.232 3.205-2.232 5.51 0 2.307.694 4.164 2.112 5.571 1.387 1.408 3.107 2.096 5.098 2.096" fill="#11A7F2"/><path fill="#0D0D58" d="M139.967.719h5.58v24.887h-5.58v-9.793h-9.985v9.793h-5.58V.72h5.58V11.11h9.985"/><path d="M19.336 2.845c-.12-.27-.453-.33-.845-.09L.754 13.387c-.392.21-.543.51-.543.898 0 .39.181.78.694.869l4.404.898-1.327 9.165c-.06.419.15.689.513.629.362-.06.784-.39 1.025-.839L9.774 18.3l5.007 2.695c.181.18.603.24.875.06.12-.06.332-.27.452-.39.362-.359.423-1.018.151-1.707l-2.775-6.498 5.52-8.446c.302-.39.422-.868.332-1.168M7.3 7.128c1.96 0 3.53-1.588 3.53-3.504C10.83 1.677 9.23.12 7.3.12c-1.93 0-3.53 1.587-3.53 3.504 0 1.946 1.6 3.504 3.53 3.504" fill="#11A7F2"/></g></svg>